<?xml version="1.0" encoding="UTF-8" standalone="no"?>
<svg
   id="emoji"
   viewBox="0 0 32 32"
   version="1.1"
   sodipodi:docname="1F307.svg"
   width="32"
   height="32"
   inkscape:version="1.1.1 (c3084ef, 2021-09-22)"
   xmlns:inkscape="http://www.inkscape.org/namespaces/inkscape"
   xmlns:sodipodi="http://sodipodi.sourceforge.net/DTD/sodipodi-0.dtd"
   xmlns="http://www.w3.org/2000/svg"
   xmlns:svg="http://www.w3.org/2000/svg">
  <defs
     id="defs96" />
  <sodipodi:namedview
     id="namedview94"
     pagecolor="#ffffff"
     bordercolor="#999999"
     borderopacity="1"
     inkscape:pageshadow="0"
     inkscape:pageopacity="0"
     inkscape:pagecheckerboard="0"
     showgrid="false"
     inkscape:zoom="8.4444444"
     inkscape:cx="36"
     inkscape:cy="36"
     inkscape:window-width="1312"
     inkscape:window-height="872"
     inkscape:window-x="0"
     inkscape:window-y="0"
     inkscape:window-maximized="0"
     inkscape:current-layer="emoji" />
  <g
     id="g221"
     transform="matrix(0.49929688,0,0,0.49929687,-1.9971559,-1.9746873)">
    <g
       id="color">
      <rect
         x="4"
         y="4"
         width="64.089996"
         height="64"
         fill="#e27022"
         id="rect9" />
      <polyline
         fill="#f4aa41"
         points="4 31.112 25.09 36.627 24.647 41.607 4 41.035"
         id="polyline11" />
      <polyline
         fill="#f4aa41"
         points="68.09 31.112 47 36.627 47.443 41.607 68.09 41.035"
         id="polyline13" />
      <polyline
         fill="#f4aa41"
         points="68.09 11.879 51.09 31.879 47.09 28.879 59.927 4.008 68.09 4"
         id="polyline15" />
      <polyline
         fill="#f4aa41"
         points="4 4 4.001 13.364 6.109 15.355 24.64 33.945 28.39 30.638 12.1 4"
         id="polyline17" />
      <polyline
         fill="#f4aa41"
         points="32.502 4 34.438 26.255 39.421 26.666 42.692 4"
         id="polyline19" />
      <circle
         cx="37.09"
         cy="35.879398"
         r="15"
         fill="#fcea2b"
         id="circle21" />
      <polyline
         fill="#9b9b9a"
         points="10.013 45.981 10.013 28.981 20.013 28.981 20.013 45.981"
         id="polyline23" />
      <rect
         x="34.0131"
         y="32.9814"
         width="13"
         height="35.0186"
         fill="#9b9b9a"
         id="rect25" />
      <polyline
         fill="#d0cfce"
         points="51.013 68 51.013 36.981 67.013 36.981 67.013 68"
         id="polyline27" />
      <polyline
         fill="#d0cfce"
         points="5.013 68 5.013 45.981 39.013 45.981 39.013 68"
         id="polyline29" />
      <rect
         x="9.0130997"
         y="48.984798"
         width="2.9913001"
         height="5.9965"
         fill="#fcea2b"
         id="rect31" />
      <rect
         x="15.0131"
         y="48.984798"
         width="2.9913001"
         height="5.9965"
         fill="#fcea2b"
         id="rect33" />
      <rect
         x="27.0131"
         y="48.984798"
         width="2.9913001"
         height="5.9965"
         fill="#fcea2b"
         id="rect35" />
      <rect
         x="33.0131"
         y="48.984798"
         width="2.9913001"
         height="5.9965"
         fill="#fcea2b"
         id="rect37" />
      <rect
         x="55.0131"
         y="39.984798"
         width="2.9913001"
         height="5.9965"
         fill="#fcea2b"
         id="rect39" />
      <rect
         x="61.0131"
         y="49.984798"
         width="2.9913001"
         height="5.9965"
         fill="#fcea2b"
         id="rect41" />
      <rect
         x="61.0131"
         y="59.984798"
         width="2.9913001"
         height="5.9965"
         fill="#fcea2b"
         id="rect43" />
      <rect
         x="55.0131"
         y="59.984798"
         width="2.9913001"
         height="5.9965"
         fill="#fcea2b"
         id="rect45" />
      <rect
         x="33.0131"
         y="58.984798"
         width="2.9913001"
         height="5.9965"
         fill="#fcea2b"
         id="rect47" />
      <rect
         x="21.0131"
         y="58.984798"
         width="2.9913001"
         height="5.9965"
         fill="#fcea2b"
         id="rect49" />
      <rect
         x="9.0130997"
         y="58.984798"
         width="2.9913001"
         height="5.9965"
         fill="#fcea2b"
         id="rect51" />
    </g>
    <g
       id="line">
      <polyline
         fill="none"
         stroke="#000000"
         stroke-linecap="round"
         stroke-linejoin="round"
         stroke-width="2"
         points="51.013 66.981 51.013 36.981 67.013 36.981 67.013 66.981"
         id="polyline54" />
      <polyline
         fill="none"
         stroke="#000000"
         stroke-linecap="round"
         stroke-linejoin="round"
         stroke-width="2"
         points="5.013 66.981 5.013 45.981 39.013 45.981 39.013 66.981"
         id="polyline56" />
      <polyline
         fill="none"
         stroke="#000000"
         stroke-linecap="round"
         stroke-linejoin="round"
         stroke-width="2"
         points="35.013 42.981 35.013 32.981 47.013 32.981 47.013 66.981"
         id="polyline58" />
      <polyline
         fill="none"
         stroke="#000000"
         stroke-linecap="round"
         stroke-linejoin="round"
         stroke-width="2"
         points="11.013 42.981 11.013 28.981 19.013 28.981 19.013 42.981"
         id="polyline60" />
      <polyline
         fill="none"
         stroke="#000000"
         stroke-linecap="round"
         stroke-linejoin="round"
         stroke-width="2"
         points="57.013 45.981 55.013 45.981 55.013 40.981"
         id="polyline62" />
      <polyline
         fill="none"
         stroke="#000000"
         stroke-linecap="round"
         stroke-linejoin="round"
         stroke-width="2"
         points="63.013 55.981 61.013 55.981 61.013 50.981"
         id="polyline64" />
      <polyline
         fill="none"
         stroke="#000000"
         stroke-linecap="round"
         stroke-linejoin="round"
         stroke-width="2"
         points="29.013 54.981 27.013 54.981 27.013 49.981"
         id="polyline66" />
      <polyline
         fill="none"
         stroke="#000000"
         stroke-linecap="round"
         stroke-linejoin="round"
         stroke-width="2"
         points="35.013 54.981 33.013 54.981 33.013 49.981"
         id="polyline68" />
      <polyline
         fill="none"
         stroke="#000000"
         stroke-linecap="round"
         stroke-linejoin="round"
         stroke-width="2"
         points="35.013 64.981 33.013 64.981 33.013 59.981"
         id="polyline70" />
      <polyline
         fill="none"
         stroke="#000000"
         stroke-linecap="round"
         stroke-linejoin="round"
         stroke-width="2"
         points="17.013 54.981 15.013 54.981 15.013 49.981"
         id="polyline72" />
      <polyline
         fill="none"
         stroke="#000000"
         stroke-linecap="round"
         stroke-linejoin="round"
         stroke-width="2"
         points="11.013 54.981 9.013 54.981 9.013 49.981"
         id="polyline74" />
      <polyline
         fill="none"
         stroke="#000000"
         stroke-linecap="round"
         stroke-linejoin="round"
         stroke-width="2"
         points="11.013 64.981 9.013 64.981 9.013 59.981"
         id="polyline76" />
      <polyline
         fill="none"
         stroke="#000000"
         stroke-linecap="round"
         stroke-linejoin="round"
         stroke-width="2"
         points="23.013 64.981 21.013 64.981 21.013 59.981"
         id="polyline78" />
      <polyline
         fill="none"
         stroke="#000000"
         stroke-linecap="round"
         stroke-linejoin="round"
         stroke-width="2"
         points="57.013 65.981 55.013 65.981 55.013 60.981"
         id="polyline80" />
      <polyline
         fill="none"
         stroke="#000000"
         stroke-linecap="round"
         stroke-linejoin="round"
         stroke-width="2"
         points="63.013 65.981 61.013 65.981 61.013 60.981"
         id="polyline82" />
      <line
         x1="15.0131"
         x2="15.0131"
         y1="31.9814"
         y2="42.9814"
         fill="none"
         stroke="#000000"
         stroke-linecap="round"
         stroke-linejoin="round"
         stroke-width="2"
         id="line84" />
      <line
         x1="39.0131"
         x2="39.0131"
         y1="35.9814"
         y2="42.9814"
         fill="none"
         stroke="#000000"
         stroke-linecap="round"
         stroke-linejoin="round"
         stroke-width="2"
         id="line86" />
      <line
         x1="43.0131"
         x2="43.0131"
         y1="35.9814"
         y2="66.9814"
         fill="none"
         stroke="#000000"
         stroke-linecap="round"
         stroke-linejoin="round"
         stroke-width="2"
         id="line88" />
      <path
         fill="none"
         stroke="#000000"
         stroke-linecap="round"
         stroke-miterlimit="10"
         stroke-width="2"
         d="M 23.8748,42.982 A 15.002,15.002 0 1 1 51.9664,33.9448"
         id="path90" />
    </g>
  </g>
</svg>
