<?xml version="1.0" encoding="UTF-8" standalone="no"?>
<svg
   id="emoji"
   viewBox="0 0 32 32"
   version="1.1"
   sodipodi:docname="1F305.svg"
   width="32"
   height="32"
   inkscape:version="1.1.1 (c3084ef, 2021-09-22)"
   xmlns:inkscape="http://www.inkscape.org/namespaces/inkscape"
   xmlns:sodipodi="http://sodipodi.sourceforge.net/DTD/sodipodi-0.dtd"
   xmlns="http://www.w3.org/2000/svg"
   xmlns:svg="http://www.w3.org/2000/svg">
  <defs
     id="defs46" />
  <sodipodi:namedview
     id="namedview44"
     pagecolor="#ffffff"
     bordercolor="#999999"
     borderopacity="1"
     inkscape:pageshadow="0"
     inkscape:pageopacity="0"
     inkscape:pagecheckerboard="0"
     showgrid="false"
     inkscape:zoom="8.4444444"
     inkscape:cx="36"
     inkscape:cy="36"
     inkscape:window-width="1312"
     inkscape:window-height="872"
     inkscape:window-x="0"
     inkscape:window-y="0"
     inkscape:window-maximized="0"
     inkscape:current-layer="emoji" />
  <g
     id="g146"
     transform="matrix(0.50000001,0,0,0.50000001,-2.0000753,-2.0395)">
    <g
       id="color">
      <rect
         x="4.0002999"
         y="47.292198"
         width="64"
         height="20.7868"
         fill="#61b2e4"
         id="rect9" />
      <rect
         x="4.0002999"
         y="4.079"
         width="64"
         height="43.2132"
         fill="#e27022"
         id="rect11" />
      <polyline
         fill="#f4aa41"
         points="68 4.079 60 4.079 44 35.079 48 38.079 65 18.079 68 14.848"
         id="polyline13" />
      <polygon
         fill="#f4aa41"
         points="4,4.079 4,17.641 6.019,19.554 24.55,38.145 28.3,34.837 9,4.079 "
         id="polygon15" />
      <polyline
         fill="#f4aa41"
         points="30.879 4.079 33.348 32.454 38.331 32.866 42.08 6.886 42.566 4.079"
         id="polyline17" />
      <polyline
         fill="#f4aa41"
         points="68 34.719 46.068 41.718 46.775 46.668 68 44.947"
         id="polyline19" />
      <polyline
         fill="#f4aa41"
         points="4 34.899 25.933 41.898 25.226 46.848 4 45.127"
         id="polyline21" />
      <path
         fill="#fcea2b"
         d="m 21.48,47.2923 a 15.6793,15.6793 0 1 1 29.04,6e-4"
         id="path23" />
      <polygon
         fill="#ffffff"
         points="59.643,27.783 60.927,24.904 67.964,24.049 68,47.292 49.932,47.292 55.019,37.008 58.641,33.433 "
         id="polygon25" />
      <polygon
         fill="#ffffff"
         points="14.967,28.846 11.073,24.904 4.037,24.049 4,47.292 21.48,47.292 18.327,36.079 14.848,32.091 "
         id="polygon27" />
    </g>
    <g
       id="line">
      <path
         fill="none"
         stroke="#000000"
         stroke-linecap="round"
         stroke-miterlimit="10"
         stroke-width="2"
         d="m 8.48,32.188 a 7.7528,7.7528 0 0 1 9.8478,4.82"
         id="path30" />
      <path
         fill="none"
         stroke="#000000"
         stroke-linecap="round"
         stroke-miterlimit="10"
         stroke-width="2"
         d="m 5,24.0262 a 7.7528,7.7528 0 0 1 9.8478,4.82"
         id="path32" />
      <path
         fill="none"
         stroke="#000000"
         stroke-linecap="round"
         stroke-miterlimit="10"
         stroke-width="2"
         d="m 54.4754,40.5834 a 7.7527,7.7527 0 0 1 8.3317,-7.127"
         id="path34" />
      <path
         fill="none"
         stroke="#000000"
         stroke-linecap="round"
         stroke-miterlimit="10"
         stroke-width="2"
         d="M 58.6412,30.7561 A 7.7529,7.7529 0 0 1 66.9729,23.629"
         id="path36" />
      <line
         x1="5.1238999"
         x2="66.876701"
         y1="47.2929"
         y2="47.2929"
         fill="none"
         stroke="#000000"
         stroke-linecap="round"
         stroke-miterlimit="10"
         stroke-width="2"
         id="line38" />
      <path
         fill="none"
         stroke="#000000"
         stroke-linecap="round"
         stroke-miterlimit="10"
         stroke-width="2"
         d="m 20.49,43.9627 a 15.6793,15.6793 0 1 1 30.7746,0.2534"
         id="path40" />
    </g>
  </g>
</svg>
