<?xml version="1.0" encoding="UTF-8" standalone="no"?>
<svg
   id="emoji"
   viewBox="0 0 32 32"
   version="1.1"
   sodipodi:docname="1F389.svg"
   inkscape:version="1.1.1 (c3084ef, 2021-09-22)"
   width="32"
   height="32"
   xmlns:inkscape="http://www.inkscape.org/namespaces/inkscape"
   xmlns:sodipodi="http://sodipodi.sourceforge.net/DTD/sodipodi-0.dtd"
   xmlns="http://www.w3.org/2000/svg"
   xmlns:svg="http://www.w3.org/2000/svg">
  <defs
     id="defs866" />
  <sodipodi:namedview
     id="namedview864"
     pagecolor="#ffffff"
     bordercolor="#999999"
     borderopacity="1"
     inkscape:pageshadow="0"
     inkscape:pageopacity="0"
     inkscape:pagecheckerboard="0"
     showgrid="false"
     inkscape:zoom="4.2222222"
     inkscape:cx="33.276316"
     inkscape:cy="36.236842"
     inkscape:window-width="1312"
     inkscape:window-height="872"
     inkscape:window-x="0"
     inkscape:window-y="0"
     inkscape:window-maximized="0"
     inkscape:current-layer="emoji" />
  <g
     id="hair" />
  <g
     id="skin" />
  <g
     id="skin-shadow" />
  <g
     id="g948"
     transform="translate(-18.441645,-19.888306)">
    <g
       id="color"
       transform="matrix(0.54198849,0,0,0.54198849,15.77467,16.437257)">
      <polygon
         fill="#f1b31c"
         stroke="none"
         points="38.75,32.75 51.3192,45.3192 29.7894,54.2798 8.2597,63.2403 17.2202,41.7106 26.1808,20.1808 "
         id="polygon824" />
      <polygon
         fill="#fcea2b"
         stroke="none"
         points="7.0905,64.4095 40,35 25.6924,20.6692 16.3914,42.5394 "
         id="polygon826" />
      <polygon
         fill="#ea5a47"
         stroke="none"
         points="12.9576,50.8012 15.2238,45.2849 26.2858,56.3469 20.7548,58.5984 "
         id="polygon828" />
      <polygon
         fill="#d22f27"
         stroke="none"
         points="21.4849,51.546 17.3429,55.2475 20.7548,58.5984 26.2858,56.3469 "
         id="polygon830" />
      <polygon
         fill="#ea5a47"
         stroke="none"
         points="27.5011,38.8591 39.2002,50.5583 32.9273,53.4217 24.7555,45.2498 18.1504,38.6447 20.8045,32.1625 "
         id="polygon832" />
      <polygon
         fill="#d22f27"
         stroke="none"
         points="31.3616,42.7197 26.5369,47.0312 32.9273,53.4216 39.2003,50.5582 "
         id="polygon834" />
      <ellipse
         cx="30.295099"
         cy="14.4579"
         rx="2"
         ry="1.9708"
         fill="#8967aa"
         stroke="none"
         id="ellipse836" />
      <path
         fill="#ea5a47"
         stroke="none"
         d="M 23,37"
         id="path838" />
      <ellipse
         cx="60.295101"
         cy="18.457899"
         rx="2"
         ry="1.9708"
         fill="#f1b31c"
         stroke="none"
         id="ellipse840" />
      <ellipse
         cx="57.295101"
         cy="39.457901"
         rx="2"
         ry="1.9708"
         fill="#d22f27"
         stroke="none"
         id="ellipse842" />
    </g>
    <g
       id="line"
       transform="matrix(0.54198849,0,0,0.54198849,15.77467,16.437257)">
      <polyline
         fill="none"
         stroke="#000000"
         stroke-linecap="round"
         stroke-linejoin="round"
         stroke-miterlimit="10"
         stroke-width="2"
         points="50.6626,45.6395 50.8308,45.8076 28.9606,55.1086 7.0904,64.4096 16.3914,42.5394 25.6923,20.6692"
         id="polyline848" />
      <polyline
         fill="none"
         stroke="#000000"
         stroke-linecap="round"
         stroke-linejoin="round"
         stroke-miterlimit="10"
         stroke-width="2"
         points="25.801,20.7779 38.2616,33.2384 50.6626,45.6395"
         id="polyline850" />
      <line
         x1="25.692301"
         x2="25.801001"
         y1="20.669201"
         y2="20.777901"
         fill="none"
         stroke="#000000"
         stroke-linecap="round"
         stroke-linejoin="round"
         stroke-miterlimit="10"
         stroke-width="2"
         id="line852" />
      <path
         fill="none"
         stroke="#000000"
         stroke-linecap="round"
         stroke-linejoin="round"
         stroke-miterlimit="10"
         stroke-width="2"
         d="m 46.4905,7.3671 c 0.2347,0.4487 0.4027,0.943 0.4897,1.473 0.451,2.7473 -1.447,5.4141 -4.2392,5.9565"
         id="path854" />
      <path
         fill="none"
         stroke="#000000"
         stroke-linecap="round"
         stroke-linejoin="round"
         stroke-miterlimit="10"
         stroke-width="2"
         d="m 42.9327,14.7763 c -0.5049,0.0384 -1.0133,0.1573 -1.509,0.364 -2.5697,1.0713 -3.828,4.093 -2.8105,6.7492"
         id="path856" />
      <path
         fill="none"
         stroke="#000000"
         stroke-linecap="round"
         stroke-linejoin="round"
         stroke-miterlimit="10"
         stroke-width="2"
         d="m 61.7928,26.7168 c -0.0987,0.4967 -0.2778,0.987 -0.5425,1.4544 -1.372,2.4225 -4.5229,3.309 -7.0378,1.98"
         id="path858" />
      <path
         fill="none"
         stroke="#000000"
         stroke-linecap="round"
         stroke-linejoin="round"
         stroke-miterlimit="10"
         stroke-width="2"
         d="m 54.3745,30.2558 c -0.4173,-0.2868 -0.8878,-0.513 -1.4036,-0.663 -2.6733,-0.7775 -5.5486,0.7867 -6.4223,3.4936"
         id="path860" />
    </g>
  </g>
</svg>
