<?xml version="1.0" encoding="UTF-8" standalone="no"?>
<svg
   id="emoji"
   viewBox="0 0 32 32"
   version="1.1"
   sodipodi:docname="1F3CB.svg"
   width="32"
   height="32"
   inkscape:version="1.1.1 (c3084ef, 2021-09-22)"
   xmlns:inkscape="http://www.inkscape.org/namespaces/inkscape"
   xmlns:sodipodi="http://sodipodi.sourceforge.net/DTD/sodipodi-0.dtd"
   xmlns="http://www.w3.org/2000/svg"
   xmlns:svg="http://www.w3.org/2000/svg">
  <defs
     id="defs43" />
  <sodipodi:namedview
     id="namedview41"
     pagecolor="#ffffff"
     bordercolor="#999999"
     borderopacity="1"
     inkscape:pageshadow="0"
     inkscape:pageopacity="0"
     inkscape:pagecheckerboard="0"
     showgrid="false"
     inkscape:zoom="8.4444444"
     inkscape:cx="36"
     inkscape:cy="36"
     inkscape:window-width="1312"
     inkscape:window-height="872"
     inkscape:window-x="0"
     inkscape:window-y="0"
     inkscape:window-maximized="0"
     inkscape:current-layer="emoji" />
  <g
     id="g143"
     transform="matrix(0.64,0,0,0.64,-7.04,-7.04)">
    <g
       id="color">
      <path
         fill="#3f3f3f"
         stroke="none"
         d="m 16,31 c 0,0.5498 -0.4502,1 -1,1 h -2 c -0.5498,0 -1,-0.4502 -1,-1 V 15 c 0,-0.5498 0.4502,-1 1,-1 h 2 c 0.5498,0 1,0.4502 1,1 z"
         id="path9" />
      <path
         fill="#3f3f3f"
         stroke="none"
         d="m 60,31 c 0,0.5498 -0.4502,1 -1,1 h -2 c -0.5498,0 -1,-0.4502 -1,-1 V 15 c 0,-0.5498 0.4502,-1 1,-1 h 2 c 0.5498,0 1,0.4502 1,1 z"
         id="path11" />
    </g>
    <g
       id="hair" />
    <g
       id="skin">
      <circle
         cx="35.9688"
         cy="18.0938"
         r="3"
         fill="#fcea2b"
         stroke="none"
         id="circle15" />
      <path
         fill="#fcea2b"
         stroke="none"
         d="m 41,39 5,2 -2,17 H 40 V 45 h -2 -4 -2 v 13 h -4 l -2,-17 5,-2 c 0,0 -1.2812,-6.3018 -1.875,-8.458 -0.333,-1.209 -1.125,-0.834 -1.459,-0.5 -0.125,0.125 -1.79,3.166 -3.624,3.166 -1.834,0 -2.8174,-0.5254 -3.292,-1.291 -1.292,-2.084 -3.125,-9.042 -3.125,-9.042 l 2.458,-0.5 1.959,7.333 1.416,0.875 3.125,-3.6665 3.459,-1.4165 11.541,-0.2085 3.709,1.5 2.499,3.1255 1.667,0.5 1.375,-4 1.417,-3.667 1.958,0.3335 c 0,0 -1.624,7.5425 -2.916,8.8335 C 50,33.208 47.708,33.667 46.5,32.5 45.292,31.333 44.958,30.625 44.167,29.917 43.9414,29.7148 43.042,29.208 42.833,30.459"
         id="path17" />
    </g>
    <g
       id="skin-shadow" />
    <g
       id="line">
      <circle
         cx="35.9688"
         cy="18.0938"
         r="3"
         fill="none"
         stroke="#000000"
         stroke-miterlimit="10"
         stroke-width="2"
         id="circle21" />
      <path
         fill="none"
         stroke="#000000"
         stroke-linecap="round"
         stroke-linejoin="round"
         stroke-miterlimit="10"
         stroke-width="2"
         d="m 20,23 2.0518,6.1543 c 0.5214,1.5654 1.7334,1.7471 2.6923,0.4043 l 1.5118,-2.1172 c 0.9589,-1.3428 3.0839,-2.2739 4.7207,-2.0693 l 2.0468,0.2558 c 1.6368,0.2046 4.3164,0.2046 5.9532,0 l 2.0468,-0.2558 c 1.6368,-0.2046 3.7618,0.7265 4.7207,2.0693 l 1.5118,2.1172 c 0.9589,1.3428 2.1709,1.1611 2.6923,-0.4043 L 52,23"
         id="path23" />
      <path
         fill="none"
         stroke="#000000"
         stroke-linecap="round"
         stroke-linejoin="round"
         stroke-miterlimit="10"
         stroke-width="2"
         d="m 41,39 3.1426,1.2568 c 1.0215,0.4092 1.7519,1.6368 1.624,2.7295 L 44.2334,56.0137 C 44.1055,57.1064 43.0996,58 42,58 v 0 c -1.0996,0 -2,-0.9004 -2,-2 v -9 c 0,-1.0996 -0.4502,-2 -1,-2 -0.5498,0 -1.9004,0 -3,0 v 0 c -1.0996,0 -2.4502,0 -3,0 -0.5498,0 -1,0.9004 -1,2 v 9 c 0,1.0996 -0.9004,2 -2,2 v 0 c -1.0996,0 -2.1055,-0.8936 -2.2334,-1.9863 L 26.2334,42.9863 c -0.1279,-1.0927 0.6025,-2.3203 1.624,-2.7295 L 31,39"
         id="path25" />
      <path
         fill="none"
         stroke="#000000"
         stroke-linecap="round"
         stroke-linejoin="round"
         stroke-miterlimit="10"
         stroke-width="2"
         d="m 31,39 c 0,0 0,-0.9004 0,-2 0,-1.0996 -0.2246,-3.125 -0.5,-4.5 C 30.2246,31.125 30,30 30,30"
         id="path27" />
      <path
         fill="none"
         stroke="#000000"
         stroke-linecap="round"
         stroke-linejoin="round"
         stroke-miterlimit="10"
         stroke-width="2"
         d="m 41,39 c 0,0 0,-0.9844 0,-2.1875 0,-1.2031 0.2109,-3.2285 0.4688,-4.5 C 41.7266,31.041 41.9375,30 41.9375,30"
         id="path29" />
      <path
         fill="none"
         stroke="#000000"
         stroke-linecap="round"
         stroke-linejoin="round"
         stroke-miterlimit="10"
         stroke-width="2"
         d="m 16,31 c 0,0.5498 -0.4502,1 -1,1 h -2 c -0.5498,0 -1,-0.4502 -1,-1 V 15 c 0,-0.5498 0.4502,-1 1,-1 h 2 c 0.5498,0 1,0.4502 1,1 z"
         id="path31" />
      <path
         fill="none"
         stroke="#000000"
         stroke-linecap="round"
         stroke-linejoin="round"
         stroke-miterlimit="10"
         stroke-width="2"
         d="m 60,31 c 0,0.5498 -0.4502,1 -1,1 h -2 c -0.5498,0 -1,-0.4502 -1,-1 V 15 c 0,-0.5498 0.4502,-1 1,-1 h 2 c 0.5498,0 1,0.4502 1,1 z"
         id="path33" />
      <path
         fill="none"
         stroke="#000000"
         stroke-linecap="round"
         stroke-linejoin="round"
         stroke-miterlimit="10"
         stroke-width="2"
         d="m 42,22 c 4,0 14,1 14,1"
         id="path35" />
      <path
         fill="none"
         stroke="#000000"
         stroke-linecap="round"
         stroke-linejoin="round"
         stroke-miterlimit="10"
         stroke-width="2"
         d="m 16,23 c 0,0 7,-1 14,-1"
         id="path37" />
    </g>
  </g>
</svg>
