<?xml version="1.0" encoding="UTF-8" standalone="no"?>
<svg
   id="emoji"
   viewBox="0 0 31.999997 32.000001"
   version="1.1"
   sodipodi:docname="1F4D2.svg"
   width="32"
   height="32"
   inkscape:version="1.1.1 (c3084ef, 2021-09-22)"
   xmlns:inkscape="http://www.inkscape.org/namespaces/inkscape"
   xmlns:sodipodi="http://sodipodi.sourceforge.net/DTD/sodipodi-0.dtd"
   xmlns="http://www.w3.org/2000/svg"
   xmlns:svg="http://www.w3.org/2000/svg">
  <defs
     id="defs41" />
  <sodipodi:namedview
     id="namedview39"
     pagecolor="#ffffff"
     bordercolor="#999999"
     borderopacity="1"
     inkscape:pageshadow="0"
     inkscape:pageopacity="0"
     inkscape:pagecheckerboard="0"
     showgrid="false"
     units="px"
     width="118.94489px"
     inkscape:zoom="8.4444444"
     inkscape:cx="24.157895"
     inkscape:cy="36.947368"
     inkscape:window-width="1312"
     inkscape:window-height="872"
     inkscape:window-x="0"
     inkscape:window-y="0"
     inkscape:window-maximized="0"
     inkscape:current-layer="emoji" />
  <g
     id="g140"
     transform="matrix(0.5702107,0,0,0.5702107,-3.4213479,-4.5310635)">
    <g
       id="color">
      <path
         fill="#fcea2b"
         stroke="none"
         d="m 60.1001,57.0799 c 0.5632,0 1.0198,-0.4576 1.0198,-1.0222 V 12.0344 c 0,-0.5645 -0.4566,-1.0222 -1.0198,-1.0222 h -43.922 c -0.5632,0 -1.0198,0.4576 -1.0198,1.0222 V 39.163 L 51.2191,57.08 h 8.881 z"
         id="path9" />
      <path
         fill="#fcea2b"
         stroke="none"
         d="m 60.1214,56.0122 c 0.5514,0 0.9985,-0.447 0.9985,-0.9985 v -43.003 c 0,-0.5514 -0.447,-0.9985 -0.9985,-0.9985 h -43.003 c -0.5514,0 -0.9985,0.447 -0.9985,0.9985 v 44.0015 z"
         id="path11" />
      <path
         fill="#fcea2b"
         stroke="none"
         stroke-linecap="round"
         stroke-linejoin="round"
         stroke-miterlimit="10"
         stroke-width="2"
         d="m 16.1199,12.0107 c 0,-0.5514 0.447,-0.9985 0.9985,-0.9985 h 43.003 c 0.5514,0 0.9985,0.447 0.9985,0.9985 v 43.003 c 0,0.5514 -0.447,0.9985 -0.9985,0.9985"
         id="path13" />
      <path
         fill="#f1b31c"
         stroke="none"
         stroke-linecap="round"
         stroke-linejoin="round"
         stroke-miterlimit="10"
         stroke-width="2"
         d="m 55.1336,61 h -43.003 c -0.5514,0 -0.9985,-0.447 -0.9985,-0.9985 V 54.1187 25.6668 22.4352 16.9985 C 11.1321,16.4471 11.5791,16 12.1306,16 h 43.003 c 0.5514,0 0.9985,0.447 0.9985,0.9985 v 43.003 C 56.1321,60.553 55.685,61 55.1336,61 Z"
         id="path15" />
    </g>
    <g
       id="hair" />
    <g
       id="skin" />
    <g
       id="skin-shadow" />
    <g
       id="line">
      <path
         fill="none"
         stroke="#000000"
         stroke-linecap="round"
         stroke-linejoin="round"
         stroke-miterlimit="10"
         stroke-width="2"
         d="m 16.1199,12.0107 c 0,-0.5514 0.447,-0.9985 0.9985,-0.9985 h 43.003 c 0.5514,0 0.9985,0.447 0.9985,0.9985 v 43.003 c 0,0.5514 -0.447,0.9985 -0.9985,0.9985"
         id="path21" />
      <path
         fill="none"
         stroke="#000000"
         stroke-linecap="round"
         stroke-linejoin="round"
         stroke-miterlimit="10"
         stroke-width="2"
         d="m 55.1336,61 h -43.003 c -0.5514,0 -0.9985,-0.447 -0.9985,-0.9985 V 54.1187 25.6668 22.4352 16.9985 C 11.1321,16.4471 11.5791,16 12.1306,16 h 43.003 c 0.5514,0 0.9985,0.447 0.9985,0.9985 v 43.003 C 56.1321,60.553 55.685,61 55.1336,61 Z"
         id="path23" />
      <line
         x1="7"
         x2="15.7116"
         y1="23.4114"
         y2="23.4114"
         fill="none"
         stroke="#000000"
         stroke-linecap="round"
         stroke-linejoin="round"
         stroke-miterlimit="10"
         stroke-width="2"
         id="line25" />
      <line
         x1="7"
         x2="15.7116"
         y1="29.446899"
         y2="29.446899"
         fill="none"
         stroke="#000000"
         stroke-linecap="round"
         stroke-linejoin="round"
         stroke-miterlimit="10"
         stroke-width="2"
         id="line27" />
      <line
         x1="7"
         x2="15.7116"
         y1="35.4823"
         y2="35.4823"
         fill="none"
         stroke="#000000"
         stroke-linecap="round"
         stroke-linejoin="round"
         stroke-miterlimit="10"
         stroke-width="2"
         id="line29" />
      <line
         x1="15.7116"
         x2="7"
         y1="41.5177"
         y2="41.5177"
         fill="none"
         stroke="#000000"
         stroke-linecap="round"
         stroke-linejoin="round"
         stroke-miterlimit="10"
         stroke-width="2"
         id="line31" />
      <line
         x1="7"
         x2="15.7116"
         y1="47.5532"
         y2="47.5532"
         fill="none"
         stroke="#000000"
         stroke-linecap="round"
         stroke-linejoin="round"
         stroke-miterlimit="10"
         stroke-width="2"
         id="line33" />
      <line
         x1="7"
         x2="15.7116"
         y1="53.5886"
         y2="53.5886"
         fill="none"
         stroke="#000000"
         stroke-linecap="round"
         stroke-linejoin="round"
         stroke-miterlimit="10"
         stroke-width="2"
         id="line35" />
    </g>
  </g>
</svg>
