<?xml version="1.0" encoding="UTF-8" standalone="no"?>
<svg
   id="emoji"
   viewBox="0 0 32 32"
   version="1.1"
   sodipodi:docname="1F6BF.svg"
   width="32"
   height="32"
   inkscape:version="1.1.1 (c3084ef, 2021-09-22)"
   xmlns:inkscape="http://www.inkscape.org/namespaces/inkscape"
   xmlns:sodipodi="http://sodipodi.sourceforge.net/DTD/sodipodi-0.dtd"
   xmlns="http://www.w3.org/2000/svg"
   xmlns:svg="http://www.w3.org/2000/svg">
  <defs
     id="defs71" />
  <sodipodi:namedview
     id="namedview69"
     pagecolor="#ffffff"
     bordercolor="#999999"
     borderopacity="1"
     inkscape:pageshadow="0"
     inkscape:pageopacity="0"
     inkscape:pagecheckerboard="0"
     showgrid="false"
     inkscape:zoom="8.4444444"
     inkscape:cx="58.736842"
     inkscape:cy="61.578947"
     inkscape:window-width="1312"
     inkscape:window-height="872"
     inkscape:window-x="0"
     inkscape:window-y="0"
     inkscape:window-maximized="0"
     inkscape:current-layer="emoji" />
  <g
     id="g185"
     transform="matrix(0.64019782,0,0,0.64019782,-6.6430177,-7.5876549)">
    <g
       id="color">
      <path
         fill="#9b9b9a"
         stroke="#9b9b9a"
         stroke-linecap="round"
         stroke-linejoin="round"
         stroke-miterlimit="10"
         stroke-width="2"
         d="m 45.5153,20.1707 c 0,0 7.116,-7.9306 13.3053,-7.2782 v 5.8571 c 0,0 -3.3014,-0.9753 -8.2012,5.762"
         id="path9" />
      <path
         fill="#9b9b9a"
         stroke="#9b9b9a"
         stroke-miterlimit="10"
         d="m 23.3045,24.1514 c 0,0 -3.6232,2.4309 -3.1341,4.0328 l 23.497,23.5426 c 0,0 0.9153,0.5151 2.0191,-1.0588 l 1.7375,-2.5347"
         id="path11" />
      <path
         fill="#d0cfce"
         stroke="none"
         d="m 24,24 c 0,0 8,-6 17,-2 l 3,-3 7.1483,6.849 -2.6127,3.0195 c 0,0 5.1386,9.3265 -1.1003,18.7815 z"
         id="path13" />
      <rect
         x="43.8517"
         y="19.5368"
         width="4.4022999"
         height="9.2292004"
         transform="matrix(0.6754,-0.7375,0.7375,0.6754,-2.8614,41.802)"
         fill="#9b9b9a"
         stroke="none"
         id="rect15" />
      <path
         fill="#92d3f5"
         stroke="none"
         stroke-linecap="round"
         stroke-linejoin="round"
         stroke-miterlimit="10"
         stroke-width="2"
         d="m 20.7513,41.9211 c -0.9549,0.9549 -2.5745,0.8797 -3.6198,-0.1655 -1.0453,-1.0452 -1.1185,-2.6668 -0.1636,-3.6217 0,0 1.1397,-1.1811 4.8354,-1.683 0,0 0.7352,-0.1359 0.6299,0.5727 -0.5019,3.6957 -1.6819,4.8975 -1.6819,4.8975"
         id="path17" />
      <path
         fill="#92d3f5"
         stroke="none"
         stroke-miterlimit="10"
         stroke-width="2"
         d="M 18.8605,40.0265"
         id="path19" />
      <path
         fill="#92d3f5"
         stroke="none"
         stroke-miterlimit="10"
         stroke-width="2"
         d="m 16.3667,53.4705 c -0.9549,0.9549 -2.5745,0.8797 -3.6198,-0.1655 -1.0453,-1.0453 -1.1185,-2.6668 -0.1636,-3.6217 0,0 1.1397,-1.1812 4.8354,-1.683 0,0 0.7352,-0.1359 0.6299,0.5727 -0.5018,3.6957 -1.6819,4.8975 -1.6819,4.8975"
         id="path21" />
      <path
         fill="#92d3f5"
         stroke="none"
         stroke-miterlimit="10"
         stroke-width="2"
         d="M 14.476,51.5759"
         id="path23" />
      <path
         fill="#92d3f5"
         stroke="none"
         stroke-miterlimit="10"
         stroke-width="2"
         d="m 23.0674,60.1712 c -0.9549,0.9549 -2.5745,0.8797 -3.6198,-0.1655 -1.0453,-1.0452 -1.1185,-2.6668 -0.1636,-3.6217 0,0 1.1397,-1.1811 4.8354,-1.683 0,0 0.7352,-0.1359 0.6299,0.5727 -0.5018,3.6957 -1.6819,4.8975 -1.6819,4.8975"
         id="path25" />
      <path
         fill="#92d3f5"
         stroke="none"
         stroke-miterlimit="10"
         stroke-width="2"
         d="M 21.1767,58.2766"
         id="path27" />
      <path
         fill="#92d3f5"
         stroke="none"
         stroke-miterlimit="10"
         stroke-width="2"
         d="m 27.2838,48.4537 c -0.9549,0.9549 -2.5745,0.8797 -3.6198,-0.1655 -1.0453,-1.0453 -1.1185,-2.6668 -0.1636,-3.6217 0,0 1.1397,-1.1811 4.8354,-1.683 0,0 0.7352,-0.1359 0.6299,0.5727 -0.5019,3.6957 -1.6819,4.8975 -1.6819,4.8975"
         id="path29" />
      <path
         fill="#92d3f5"
         stroke="none"
         stroke-miterlimit="10"
         stroke-width="2"
         d="M 25.3931,46.5591"
         id="path31" />
      <path
         fill="#92d3f5"
         stroke="none"
         stroke-miterlimit="10"
         stroke-width="2"
         d="m 33.8206,54.9905 c -0.9549,0.9549 -2.5745,0.8797 -3.6198,-0.1655 -1.0453,-1.0453 -1.1185,-2.6668 -0.1636,-3.6217 0,0 1.1397,-1.1812 4.8354,-1.683 0,0 0.7352,-0.1359 0.6299,0.5727 -0.5018,3.6957 -1.6819,4.8975 -1.6819,4.8975"
         id="path33" />
      <path
         fill="#92d3f5"
         stroke="none"
         stroke-miterlimit="10"
         stroke-width="2"
         d="M 31.9299,53.0959"
         id="path35" />
    </g>
    <g
       id="hair" />
    <g
       id="skin" />
    <g
       id="skin-shadow" />
    <g
       id="line">
      <path
         fill="none"
         stroke="#000000"
         stroke-linecap="round"
         stroke-linejoin="round"
         stroke-miterlimit="10"
         stroke-width="2"
         d="m 48.2977,17.3576 c 0,0 4.0466,-4.7508 10.5228,-4.4651 v 5.8571 c 0,0 -3.1429,-0.2857 -5.7619,3"
         id="path41" />
      <path
         fill="none"
         stroke="#000000"
         stroke-linecap="round"
         stroke-linejoin="round"
         stroke-miterlimit="10"
         stroke-width="2"
         d="m 21.0821,26.6679 c 0,0 -1.6306,1.0684 -0.75,2.0833 l 22.6667,22.6667 c 0,0 1,1.1667 2.1667,-0.75"
         id="path43" />
      <path
         fill="none"
         stroke="#000000"
         stroke-linecap="round"
         stroke-linejoin="round"
         stroke-miterlimit="10"
         stroke-width="2"
         d="m 24,24 c 0,0 8,-6 17,-2 l 3,-3 7.1483,6.849 -2.6127,3.0195 c 0,0 5.1386,9.3265 -1.1003,18.7815 z"
         id="path45" />
      <path
         fill="none"
         stroke="#000000"
         stroke-linecap="round"
         stroke-linejoin="round"
         stroke-miterlimit="10"
         stroke-width="2"
         d="m 20.7513,41.9211 c -0.9549,0.9549 -2.5745,0.8797 -3.6198,-0.1655 -1.0453,-1.0452 -1.1185,-2.6668 -0.1636,-3.6217 0,0 1.1397,-1.1811 4.8354,-1.683 0,0 0.7352,-0.1359 0.6299,0.5727 -0.5019,3.6957 -1.6819,4.8975 -1.6819,4.8975"
         id="path47" />
      <path
         fill="none"
         stroke="#000000"
         stroke-miterlimit="10"
         stroke-width="2"
         d="M 18.8605,40.0265"
         id="path49" />
      <path
         fill="none"
         stroke="#000000"
         stroke-miterlimit="10"
         stroke-width="2"
         d="m 16.3667,53.4705 c -0.9549,0.9549 -2.5745,0.8797 -3.6198,-0.1655 -1.0453,-1.0453 -1.1185,-2.6668 -0.1636,-3.6217 0,0 1.1397,-1.1812 4.8354,-1.683 0,0 0.7352,-0.1359 0.6299,0.5727 -0.5018,3.6957 -1.6819,4.8975 -1.6819,4.8975"
         id="path51" />
      <path
         fill="none"
         stroke="#000000"
         stroke-miterlimit="10"
         stroke-width="2"
         d="M 14.476,51.5759"
         id="path53" />
      <path
         fill="none"
         stroke="#000000"
         stroke-miterlimit="10"
         stroke-width="2"
         d="m 23.0674,60.1712 c -0.9549,0.9549 -2.5745,0.8797 -3.6198,-0.1655 -1.0453,-1.0452 -1.1185,-2.6668 -0.1636,-3.6217 0,0 1.1397,-1.1811 4.8354,-1.683 0,0 0.7352,-0.1359 0.6299,0.5727 -0.5018,3.6957 -1.6819,4.8975 -1.6819,4.8975"
         id="path55" />
      <path
         fill="none"
         stroke="#000000"
         stroke-miterlimit="10"
         stroke-width="2"
         d="M 21.1767,58.2766"
         id="path57" />
      <path
         fill="none"
         stroke="#000000"
         stroke-miterlimit="10"
         stroke-width="2"
         d="m 27.2838,48.4537 c -0.9549,0.9549 -2.5745,0.8797 -3.6198,-0.1655 -1.0453,-1.0453 -1.1185,-2.6668 -0.1636,-3.6217 0,0 1.1397,-1.1811 4.8354,-1.683 0,0 0.7352,-0.1359 0.6299,0.5727 -0.5019,3.6957 -1.6819,4.8975 -1.6819,4.8975"
         id="path59" />
      <path
         fill="none"
         stroke="#000000"
         stroke-miterlimit="10"
         stroke-width="2"
         d="M 25.3931,46.5591"
         id="path61" />
      <path
         fill="none"
         stroke="#000000"
         stroke-miterlimit="10"
         stroke-width="2"
         d="m 33.8206,54.9905 c -0.9549,0.9549 -2.5745,0.8797 -3.6198,-0.1655 -1.0453,-1.0453 -1.1185,-2.6668 -0.1636,-3.6217 0,0 1.1397,-1.1812 4.8354,-1.683 0,0 0.7352,-0.1359 0.6299,0.5727 -0.5018,3.6957 -1.6819,4.8975 -1.6819,4.8975"
         id="path63" />
      <path
         fill="none"
         stroke="#000000"
         stroke-miterlimit="10"
         stroke-width="2"
         d="M 31.9299,53.0959"
         id="path65" />
    </g>
  </g>
</svg>
