<?xml version="1.0" encoding="UTF-8" standalone="no"?>
<svg
   id="emoji"
   viewBox="0 0 32 32"
   version="1.1"
   sodipodi:docname="1F91D.svg"
   width="32"
   height="32"
   inkscape:version="1.1.1 (c3084ef, 2021-09-22)"
   xmlns:inkscape="http://www.inkscape.org/namespaces/inkscape"
   xmlns:sodipodi="http://sodipodi.sourceforge.net/DTD/sodipodi-0.dtd"
   xmlns="http://www.w3.org/2000/svg"
   xmlns:svg="http://www.w3.org/2000/svg">
  <defs
     id="defs37" />
  <sodipodi:namedview
     id="namedview35"
     pagecolor="#ffffff"
     bordercolor="#999999"
     borderopacity="1"
     inkscape:pageshadow="0"
     inkscape:pageopacity="0"
     inkscape:pagecheckerboard="0"
     showgrid="false"
     inkscape:zoom="8.4444444"
     inkscape:cx="36"
     inkscape:cy="36"
     inkscape:window-width="1312"
     inkscape:window-height="872"
     inkscape:window-x="0"
     inkscape:window-y="0"
     inkscape:window-maximized="0"
     inkscape:current-layer="emoji" />
  <g
     id="g134"
     transform="matrix(0.49926489,0,0,0.49926489,-1.9725665,-1.9733887)">
    <g
       id="color" />
    <g
       id="hair" />
    <g
       id="skin">
      <path
         transform="matrix(1.187,0,0,1.188,-8.324,-10.3)"
         fill="#fcea2b"
         stroke="#fcea2b"
         stroke-linecap="round"
         stroke-width="1.532"
         d="m 33.59,59.58 c 1.617,1.699 4.094,-3.063 4.809,-4.103 2.298,1.695 8.481,3.023 7.537,-1.592 1.225,0.448 5.037,0.6612 3.849,-3.45 3.047,1.486 5.646,-0.8396 5.245,-3.457 2.698,0.4885 4.347,-1.715 3.588,-4.344 4.063,-5.1 3.828,-11.69 3.595,-14.66 -0.7777,-9.896 -14.08,-6.154 -20.2,-10.02 l -12.99,0.05163 c -2.202,3.942 -3.569,1.824 -7.728,2.337 -6.072,0.8894 -11.08,16.24 -9.519,16.94 l 7.732,8.23 c 0.1394,1.526 -3.91,4.042 -0.3566,5.882 6.126,2.159 10.32,5.064 14.45,8.183 z"
         id="path11" />
    </g>
    <g
       id="skin-shadow" />
    <g
       id="line">
      <path
         fill="none"
         stroke="#000000"
         stroke-linecap="round"
         stroke-linejoin="round"
         stroke-width="2"
         d="m 15.05,43.95 c 0,0 -7.133,-5.822 -8.537,-8.259 -4.392,-7.595 0.9489,-19.79 10.44,-21.82"
         id="path15" />
      <path
         fill="none"
         stroke="#000000"
         stroke-linecap="round"
         stroke-linejoin="round"
         stroke-width="2"
         d="M 38.71,42.99 51.6,50.011"
         id="path17" />
      <path
         fill="none"
         stroke="#000000"
         stroke-linecap="round"
         stroke-linejoin="round"
         stroke-width="2"
         d="m 33.87,47.79 13,6.498"
         id="path19" />
      <path
         fill="none"
         stroke="#000000"
         stroke-linecap="round"
         stroke-linejoin="round"
         stroke-width="2"
         d="m 58.18,45.72 -5.1,-4.358 -8.279,-4.335"
         id="path21" />
      <path
         fill="none"
         stroke="#000000"
         stroke-linecap="round"
         stroke-linejoin="round"
         stroke-width="2"
         d="m 37.49,56.29 c 8.574,5.466 10.79,-0.2955 9.387,-1.994 2.734,1.625 6.209,-0.517 4.731,-4.283 3.844,1.847 7.022,-1.034 6.579,-4.283 3.326,0.591 5.395,-2.142 4.435,-5.392 6.721,-4.585 5.041,-19.03 -0.09878,-25.36 -9.287,-1.459 -11,-2.362 -20.98,-3.943 l -13.53,-0.6185 c -2.005,-0.529 -4.081,0.5703 -4.779,2.533 -0.7519,2.816 -1.677,4.971 -3.599,8.378 -0.7286,1.786 0.1048,3.829 1.872,4.588 1.908,0.4767 2.78,-0.386 4.46,-1.686 2.195,-2.102 2.628,-2.996 3.805,-4.575 l 13.64,6.204 12.72,7.164 c 2.514,1.698 5.012,5.844 6.51,7.321"
         id="path23" />
      <path
         fill="none"
         stroke="#000000"
         stroke-linecap="round"
         stroke-linejoin="round"
         stroke-width="2"
         d="m 31.51,54.15 c 1.109,-1.477 2.666,-1.713 4.144,-0.9003 1.405,0.8125 2.439,2.362 1.478,4.063 l -1.774,3.101 c -1.109,1.477 -3.178,1.698 -4.582,0.6647 -1.234,-0.9245 -1.592,-2.518 -1.076,-3.836 1.81,-3.094 0,0 1.81,-3.094 z"
         id="path25" />
      <path
         fill="none"
         stroke="#000000"
         stroke-linecap="round"
         stroke-linejoin="round"
         stroke-width="2"
         d="m 25.84,50.98 c 1.109,-1.477 2.666,-1.713 4.144,-0.9003 1.405,0.8125 2.439,2.362 1.478,4.063 l -1.774,3.101 c -1.109,1.477 -3.178,1.698 -4.582,0.6647 -1.234,-0.9245 -1.592,-2.518 -1.076,-3.836 1.81,-3.094 0,0 1.81,-3.094 z"
         id="path27" />
      <path
         fill="none"
         stroke="#000000"
         stroke-linecap="round"
         stroke-linejoin="round"
         stroke-width="2"
         d="m 20.18,47.82 c 1.109,-1.477 2.666,-1.713 4.144,-0.9003 1.405,0.8125 2.439,2.362 1.478,4.063 l -1.774,3.101 c -1.109,1.477 -3.178,1.698 -4.582,0.6647 -1.234,-0.9245 -1.592,-2.518 -1.076,-3.836 1.81,-3.094 0,0 1.81,-3.094 z"
         id="path29" />
      <path
         fill="none"
         stroke="#000000"
         stroke-linecap="round"
         stroke-linejoin="round"
         stroke-width="2"
         d="m 14.53,44.65 c 1.109,-1.477 2.666,-1.713 4.144,-0.9003 1.405,0.8125 2.439,2.362 1.478,4.063 l -1.774,3.101 c -1.109,1.477 -3.178,1.698 -4.582,0.6647 -1.234,-0.9245 -1.592,-2.518 -1.076,-3.836 1.81,-3.094 0,0 1.81,-3.094 z"
         id="path31" />
    </g>
  </g>
</svg>
