<?xml version="1.0" encoding="UTF-8" standalone="no"?>
<svg
   id="emoji"
   viewBox="0 0 32 32"
   version="1.1"
   sodipodi:docname="2600.svg"
   width="32"
   height="32"
   inkscape:version="1.1.1 (c3084ef, 2021-09-22)"
   xmlns:inkscape="http://www.inkscape.org/namespaces/inkscape"
   xmlns:sodipodi="http://sodipodi.sourceforge.net/DTD/sodipodi-0.dtd"
   xmlns="http://www.w3.org/2000/svg"
   xmlns:svg="http://www.w3.org/2000/svg">
  <defs
     id="defs23" />
  <sodipodi:namedview
     id="namedview21"
     pagecolor="#ffffff"
     bordercolor="#999999"
     borderopacity="1"
     inkscape:pageshadow="0"
     inkscape:pageopacity="0"
     inkscape:pagecheckerboard="0"
     showgrid="false"
     inkscape:zoom="8.4444444"
     inkscape:cx="36"
     inkscape:cy="36"
     inkscape:window-width="1312"
     inkscape:window-height="872"
     inkscape:window-x="0"
     inkscape:window-y="0"
     inkscape:window-maximized="0"
     inkscape:current-layer="emoji" />
  <g
     id="g113"
     transform="matrix(0.51613118,0,0,0.51613118,-2.5807225,-2.5807225)">
    <g
       id="color">
      <polygon
         fill="#fcea2b"
         stroke="none"
         points="41.1813,55.3236 36,66 30.8184,55.3235 20.9937,61.9819 21.8576,50.1418 10.0177,51.0056 16.6764,41.1813 6,36 16.6765,30.8184 10.0181,20.9937 21.8582,21.8576 20.9944,10.0177 30.8187,16.6764 36,6 41.1816,16.6765 51.0063,10.0181 50.1424,21.8582 61.9823,20.9944 55.3236,30.8187 66,36 55.3235,41.1816 61.9819,51.0063 50.1418,50.1424 51.0056,61.9823 "
         id="polygon9" />
    </g>
    <g
       id="hair" />
    <g
       id="skin" />
    <g
       id="skin-shadow" />
    <g
       id="line">
      <circle
         cx="36"
         cy="35.950001"
         r="19.8276"
         fill="none"
         stroke="#000000"
         stroke-linecap="round"
         stroke-linejoin="round"
         stroke-miterlimit="10"
         stroke-width="2"
         id="circle15" />
      <polygon
         fill="none"
         stroke="#000000"
         stroke-linecap="round"
         stroke-linejoin="round"
         stroke-miterlimit="10"
         stroke-width="2"
         points="41.1813,55.3236 36,66 30.8184,55.3235 20.9937,61.9819 21.8576,50.1418 10.0177,51.0056 16.6764,41.1813 6,36 16.6765,30.8184 10.0181,20.9937 21.8582,21.8576 20.9944,10.0177 30.8187,16.6764 36,6 41.1816,16.6765 51.0063,10.0181 50.1424,21.8582 61.9823,20.9944 55.3236,30.8187 66,36 55.3235,41.1816 61.9819,51.0063 50.1418,50.1424 51.0056,61.9823 "
         id="polygon17" />
    </g>
  </g>
</svg>
