<?xml version="1.0" encoding="UTF-8" standalone="no"?>
<svg
   id="emoji"
   viewBox="0 0 32 32"
   version="1.1"
   sodipodi:docname="2712.svg"
   width="32"
   height="32"
   inkscape:version="1.1.1 (c3084ef, 2021-09-22)"
   xmlns:inkscape="http://www.inkscape.org/namespaces/inkscape"
   xmlns:sodipodi="http://sodipodi.sourceforge.net/DTD/sodipodi-0.dtd"
   xmlns="http://www.w3.org/2000/svg"
   xmlns:svg="http://www.w3.org/2000/svg">
  <defs
     id="defs32" />
  <sodipodi:namedview
     id="namedview30"
     pagecolor="#ffffff"
     bordercolor="#999999"
     borderopacity="1"
     inkscape:pageshadow="0"
     inkscape:pageopacity="0"
     inkscape:pagecheckerboard="0"
     showgrid="false"
     inkscape:zoom="8.4444444"
     inkscape:cx="36"
     inkscape:cy="36"
     inkscape:window-width="1312"
     inkscape:window-height="872"
     inkscape:window-x="0"
     inkscape:window-y="0"
     inkscape:window-maximized="0"
     inkscape:current-layer="emoji" />
  <g
     id="g125"
     transform="matrix(0.65890396,0,0,0.65890396,-9.2905461,-6.1147272)">
    <g
       id="color">
      <path
         fill="#3f3f3f"
         d="m 50.8751,34.0285 a 2.7147,2.7147 0 0 1 -1.9317,-0.8 v 0 L 38.7169,23.0021 a 2.7308,2.7308 0 0 1 9e-4,-3.8628 l 9.5557,-9.5566 a 1.0168,1.0168 0 0 1 1.3965,0 L 62.3634,22.276 a 0.988,0.988 0 0 1 0,1.3955 l -9.5567,9.5571 a 2.714,2.714 0 0 1 -1.9316,0.7999 z"
         id="path9" />
      <path
         fill="#fcea2b"
         d="m 48.1407,35.0242 a 1.8386,1.8386 0 0 1 -1.2992,-0.54 v 0 L 37.48,25.1205 a 1.8007,1.8007 0 0 1 -0.03,-2.5431 l 1.1156,-1.1156 a 1.0078,1.0078 0 0 1 1.4266,0 l 10.51,10.51 a 1.0087,1.0087 0 0 1 0,1.426 l -1.1166,1.1152 a 1.7548,1.7548 0 0 1 -1.2449,0.5112 z m 0.1264,-1.9679 9e-4,0.0015 v -5e-4 z"
         id="path11" />
      <path
         fill="#d0cfce"
         d="m 14.5049,57.4578 a 0.934,0.934 0 0 1 0,-1.3217 c 5.6313,-5.6313 5.0519,-22.5735 5.0457,-22.7441 a 0.9344,0.9344 0 0 1 0.7119,-0.9439 C 20.3889,32.417 32.9373,29.3137 38.07,24.181 a 0.9343,0.9343 0 0 1 1.3217,0 l 8.3907,8.3907 a 0.9342,0.9342 0 0 1 0,1.3216 C 42.65,39.0261 39.5457,51.5738 39.5146,51.7 a 0.9345,0.9345 0 0 1 -0.9439,0.712 C 38.4001,52.4058 21.453,51.8313 15.8266,57.4577 a 0.934,0.934 0 0 1 -1.3217,10e-5 z"
         id="path13" />
      <circle
         cx="36.069698"
         cy="35.876099"
         r="3"
         fill="#ffffff"
         id="circle15" />
    </g>
    <g
       id="line">
      <path
         fill="none"
         stroke="#000000"
         stroke-linecap="round"
         stroke-linejoin="round"
         stroke-width="1.8691"
         d="m 15.1,56.8458 c 5.9849,-5.9849 5.3187,-23.441 5.3187,-23.441 0,0 10.0435,-2.446 16.0946,-6.7283"
         id="path18" />
      <path
         fill="none"
         stroke="#000000"
         stroke-linecap="round"
         stroke-linejoin="round"
         stroke-width="1.8691"
         d="m 15.1,56.8458 c 5.9849,-5.9849 23.441,-5.3187 23.441,-5.3187 0,0 2.446,-10.0435 6.7283,-16.0946"
         id="path20" />
      <circle
         cx="36.069698"
         cy="35.876099"
         r="3"
         fill="none"
         stroke="#000000"
         stroke-linecap="round"
         stroke-linejoin="round"
         stroke-width="1.9737"
         id="circle22" />
      <line
         x1="15.1"
         x2="33.951"
         y1="56.845798"
         y2="37.994801"
         fill="none"
         stroke="#000000"
         stroke-linecap="round"
         stroke-linejoin="round"
         stroke-width="2"
         id="line24" />
      <path
         fill="none"
         stroke="#000000"
         stroke-linecap="round"
         stroke-linejoin="round"
         stroke-width="2"
         d="m 48.9721,10.28 -9.5573,9.5573 a 1.7446,1.7446 0 0 0 -0.155,2.29 l -1.1337,1.1307 a 0.7948,0.7948 0 0 0 0.03,1.123 l 9.4089,9.409 a 0.7948,0.7948 0 0 0 1.123,0.03 l 1.1291,-1.1349 a 1.7446,1.7446 0 0 0 2.2911,-0.1539 l 9.5573,-9.5572"
         id="path26" />
    </g>
  </g>
</svg>
