<?xml version="1.0" encoding="UTF-8" standalone="no"?>
<svg
   id="emoji"
   viewBox="0 0 32 32"
   version="1.1"
   sodipodi:docname="E246.svg"
   width="32"
   height="32"
   inkscape:version="1.1.1 (c3084ef, 2021-09-22)"
   xmlns:inkscape="http://www.inkscape.org/namespaces/inkscape"
   xmlns:sodipodi="http://sodipodi.sourceforge.net/DTD/sodipodi-0.dtd"
   xmlns="http://www.w3.org/2000/svg"
   xmlns:svg="http://www.w3.org/2000/svg">
  <defs
     id="defs41" />
  <sodipodi:namedview
     id="namedview39"
     pagecolor="#ffffff"
     bordercolor="#999999"
     borderopacity="1"
     inkscape:pageshadow="0"
     inkscape:pageopacity="0"
     inkscape:pagecheckerboard="0"
     showgrid="false"
     inkscape:zoom="8.4444444"
     inkscape:cx="36"
     inkscape:cy="36"
     inkscape:window-width="1312"
     inkscape:window-height="872"
     inkscape:window-x="0"
     inkscape:window-y="0"
     inkscape:window-maximized="0"
     inkscape:current-layer="emoji" />
  <g
     id="g140"
     transform="matrix(0.53278361,0,0,0.53278361,-3.2067959,-3.1885747)">
    <g
       id="color">
      <path
         fill="#9b9b9a"
         d="m 16.0497,54.9455 c -1.6613,0 -3.0081,-1.3468 -3.0081,-3.0081 v -8.862 l -0.0015,-3.4078 c -1e-4,-0.2111 0.2466,-0.326 0.4082,-0.1901 l 3.7794,3.3007 c 0.1356,0.1142 0.3072,0.1768 0.4845,0.1768 h 23.2796 c 1.6613,0 3.0081,1.3468 3.0081,3.0081 v 5.9742 c 0,1.6613 -1.3468,3.0081 -3.0081,3.0081 z"
         id="path9" />
      <path
         fill="#d0cfce"
         d="m 58.6474,32.468 c 0.1623,0.1367 0.4103,0.0212 0.4102,-0.191 l -0.0014,-3.2289 h 5e-4 v -9.0304 c 0,-1.6702 -1.354,-3.0242 -3.0242,-3.0242 H 31.1218 c -1.6702,0 -3.0242,1.354 -3.0242,3.0242 v 6.0062 c 0,1.6702 1.354,3.0242 3.0242,3.0242 h 23.3303 c 0.1782,0 0.3507,0.063 0.487,0.1777 z"
         id="path11" />
    </g>
    <g
       id="hair" />
    <g
       id="skin">
      <circle
         cx="13.0196"
         cy="20.122299"
         r="3"
         fill="#fcea2b"
         id="circle15" />
      <circle
         cx="59.0802"
         cy="42.036301"
         r="3"
         fill="#fcea2b"
         id="circle17" />
      <polygon
         fill="#fcea2b"
         points="6.9435,34.1137 7.4561,30.2263 10.5376,27.5123 15.3719,27.3145 18.3403,30.1415 19.0247,34.1215 "
         id="polygon19" />
      <polygon
         fill="#fcea2b"
         points="53.067,56.0301 53.5796,52.1428 56.6611,49.4288 61.4953,49.2309 64.4638,52.058 65.1481,56.0379 "
         id="polygon21" />
    </g>
    <g
       id="skin-shadow" />
    <g
       id="line">
      <circle
         cx="13.0196"
         cy="20.122299"
         r="3"
         fill="none"
         stroke="#000000"
         stroke-miterlimit="10"
         stroke-width="2"
         id="circle25" />
      <path
         fill="none"
         stroke="#000000"
         stroke-linecap="round"
         stroke-linejoin="round"
         stroke-miterlimit="10"
         stroke-width="2"
         d="m 7.0196,33.1223 c 0,0 1,-4.3112 3,-5.3112 2,-1 4,-1 6,0 2,1 3,5.3112 3,5.3112"
         id="path27" />
      <circle
         cx="59.0802"
         cy="42.036301"
         r="3"
         fill="none"
         stroke="#000000"
         stroke-miterlimit="10"
         stroke-width="2"
         id="circle29" />
      <path
         fill="none"
         stroke="#000000"
         stroke-linecap="round"
         stroke-linejoin="round"
         stroke-miterlimit="10"
         stroke-width="2"
         d="m 53.0802,55.0363 c 0,0 1,-4.3112 3,-5.3112 2,-1 4,-1 6,0 2,1 3,5.3112 3,5.3112"
         id="path31" />
      <path
         fill="none"
         stroke="#000000"
         stroke-miterlimit="10"
         stroke-width="2"
         d="m 16.0497,54.9455 c -1.6613,0 -3.0081,-1.3468 -3.0081,-3.0081 v -8.862 l -0.0015,-3.4078 c -1e-4,-0.2111 0.2466,-0.326 0.4082,-0.1901 l 3.7794,3.3007 c 0.1356,0.1142 0.3072,0.1768 0.4845,0.1768 h 23.2796 c 1.6613,0 3.0081,1.3468 3.0081,3.0081 v 5.9742 c 0,1.6613 -1.3468,3.0081 -3.0081,3.0081 z"
         id="path33" />
      <path
         fill="none"
         stroke="#000000"
         stroke-miterlimit="10"
         stroke-width="2"
         d="m 58.6474,32.468 c 0.1623,0.1367 0.4103,0.0212 0.4102,-0.191 l -0.0014,-3.2289 h 5e-4 v -9.0304 c 0,-1.6702 -1.354,-3.0242 -3.0242,-3.0242 H 31.1218 c -1.6702,0 -3.0242,1.354 -3.0242,3.0242 v 6.0062 c 0,1.6702 1.354,3.0242 3.0242,3.0242 h 23.3303 c 0.1782,0 0.3507,0.063 0.487,0.1777 z"
         id="path35" />
    </g>
  </g>
</svg>
